<svg viewBox="0 0 96 96" xmlns="http://www.w3.org/2000/svg" xmlns:xlink="http://www.w3.org/1999/xlink" id="Icons_DinosaurFootprints" overflow="hidden"><path d="M42 17.58 42.56 15C42.7214 14.3004 42.2851 13.6024 41.5855 13.441 41.5147 13.4247 41.4426 13.4143 41.37 13.41 40.72 13.3842 40.1441 13.8256 40 14.46L39.4 17.08C37.8123 17.3195 36.5362 18.5121 36.19 20.08L33.19 33.59C33.1001 34.0184 32.7604 34.3502 32.33 34.43L32.33 34.43C31.7444 34.5433 31.1778 34.1604 31.0645 33.5748 31.0629 33.5666 31.0614 33.5583 31.06 33.55L28.16 17.87C27.8631 16.2694 26.6033 15.0216 25 14.74L24.25 10.68C24.0683 9.98541 23.3579 9.56967 22.6633 9.75141 22.04 9.9145 21.6302 10.5095 21.7 11.15L22.45 15.22C21.0214 16.0344 20.2635 17.6626 20.56 19.28L23.41 35C23.5188 35.5921 23.1271 36.1603 22.535 36.2691 22.5333 36.2694 22.5317 36.2697 22.53 36.27L22.33 36.27C21.8998 36.3454 21.4653 36.1614 21.22 35.8L15.37 27C14.4468 25.6297 12.7586 24.9921 11.16 25.41L9.52 23C9.17055 22.4473 8.4732 22.2275 7.87 22.48 7.22003 22.7718 6.92964 23.5352 7.22139 24.1851 7.2519 24.2531 7.28824 24.3183 7.33 24.38L9 26.89C8.0191 28.2048 7.97106 29.9944 8.88 31.36L20 48 21.79 52C22.8763 54.2428 25.3519 55.4559 27.79 54.94L34.12 53.77C36.582 53.3826 38.4607 51.3635 38.67 48.88L39 43.64 43.86 21.76C44.2115 20.1108 43.4604 18.4229 42 17.58Z"/><path d="M54 50.08 53.4 47.47C53.244 46.7635 53.6903 46.0644 54.3968 45.9084 54.4637 45.8936 54.5316 45.8841 54.6 45.88 55.283 45.8448 55.8844 46.3259 56 47L56.6 49.62C58.1864 49.8622 59.4612 51.0536 59.81 52.62L62.81 66.13C62.8999 66.5584 63.2396 66.8902 63.67 66.97L63.67 66.97C64.2621 67.0788 64.8303 66.6871 64.9391 66.095 64.9394 66.0933 64.9397 66.0917 64.94 66.09L67.84 50.41C68.1447 48.7914 69.4334 47.5387 71.06 47.28L71.81 43.22C71.8878 42.5063 72.5295 41.9908 73.2433 42.0686 73.957 42.1464 74.4725 42.7881 74.3947 43.5019 74.3878 43.5653 74.3762 43.6282 74.36 43.69L73.61 47.76C75.0386 48.5744 75.7965 50.2026 75.5 51.82L72.6 67.47C72.4904 68.0608 72.8795 68.6288 73.47 68.74L73.68 68.74C74.1076 68.8165 74.5397 68.6318 74.78 68.27L80.64 59.49C81.5632 58.1197 83.2514 57.4821 84.85 57.9L86.48 55.46C86.8499 54.9327 87.5407 54.7401 88.13 55 88.7819 55.2875 89.0772 56.049 88.7897 56.7009 88.7591 56.7703 88.7224 56.837 88.68 56.9L87 59.39C87.978 60.7058 88.0259 62.4936 87.12 63.86L76 80.49 74.22 84.49C73.131 86.7301 70.6576 87.9421 68.22 87.43L61.9 86.26C59.438 85.8726 57.5593 83.8535 57.35 81.37L57.06 76.14 52.2 54.26C51.8308 52.6238 52.5576 50.936 54 50.08Z"/></svg>